<mxfile host="app.diagrams.net" modified="2024-03-19T18:09:00.320Z" agent="Mozilla/5.0 (Windows NT 10.0; Win64; x64) AppleWebKit/537.36 (KHTML, like Gecko) Chrome/122.0.0.0 Safari/537.36 Edg/122.0.0.0" etag="jlcPxMW3cA02qEkpQUOM" version="24.0.7" type="github">
  <diagram name="Page-1" id="bngKUwciDOW-2FZx9G1C">
    <mxGraphModel dx="1999" dy="543" grid="1" gridSize="10" guides="1" tooltips="1" connect="1" arrows="1" fold="1" page="1" pageScale="1" pageWidth="850" pageHeight="1100" math="0" shadow="0">
      <root>
        <mxCell id="0" />
        <mxCell id="1" parent="0" />
        <mxCell id="w-AGzhBF_kdz7LjfCUOo-1" value="Customers" style="shape=umlActor;verticalLabelPosition=bottom;verticalAlign=top;html=1;outlineConnect=0;" vertex="1" parent="1">
          <mxGeometry x="-26" y="235" width="30" height="60" as="geometry" />
        </mxCell>
        <mxCell id="w-AGzhBF_kdz7LjfCUOo-2" value="&lt;b&gt;Angular Frontend&amp;nbsp; (E1: Customer Experience =&amp;gt; Safety Alerts)&lt;/b&gt;" style="whiteSpace=wrap;html=1;aspect=fixed;fillColor=#d5e8d4;strokeColor=#82b366;" vertex="1" parent="1">
          <mxGeometry x="64" y="215" width="130" height="130" as="geometry" />
        </mxCell>
        <mxCell id="w-AGzhBF_kdz7LjfCUOo-3" value="" style="endArrow=classic;html=1;rounded=0;exitX=0.5;exitY=0.5;exitDx=0;exitDy=0;exitPerimeter=0;entryX=0.006;entryY=0.383;entryDx=0;entryDy=0;entryPerimeter=0;" edge="1" parent="1" source="w-AGzhBF_kdz7LjfCUOo-1" target="w-AGzhBF_kdz7LjfCUOo-2">
          <mxGeometry width="50" height="50" relative="1" as="geometry">
            <mxPoint x="224" y="325" as="sourcePoint" />
            <mxPoint x="274" y="275" as="targetPoint" />
          </mxGeometry>
        </mxCell>
        <mxCell id="w-AGzhBF_kdz7LjfCUOo-4" value="" style="endArrow=classic;html=1;rounded=0;exitX=1;exitY=0.5;exitDx=0;exitDy=0;" edge="1" parent="1" source="w-AGzhBF_kdz7LjfCUOo-2">
          <mxGeometry width="50" height="50" relative="1" as="geometry">
            <mxPoint x="224" y="325" as="sourcePoint" />
            <mxPoint x="304" y="215" as="targetPoint" />
          </mxGeometry>
        </mxCell>
        <mxCell id="w-AGzhBF_kdz7LjfCUOo-5" value="&lt;b&gt;Retrieve and Display available Fleets with Telematics Data&lt;/b&gt;" style="ellipse;whiteSpace=wrap;html=1;aspect=fixed;fillColor=#f8cecc;strokeColor=#b85450;" vertex="1" parent="1">
          <mxGeometry x="304" y="155" width="110" height="110" as="geometry" />
        </mxCell>
        <mxCell id="w-AGzhBF_kdz7LjfCUOo-6" value="" style="endArrow=classic;html=1;rounded=0;exitX=1;exitY=0.5;exitDx=0;exitDy=0;" edge="1" parent="1" source="w-AGzhBF_kdz7LjfCUOo-2">
          <mxGeometry width="50" height="50" relative="1" as="geometry">
            <mxPoint x="224" y="325" as="sourcePoint" />
            <mxPoint x="304" y="355" as="targetPoint" />
          </mxGeometry>
        </mxCell>
        <mxCell id="w-AGzhBF_kdz7LjfCUOo-7" value="&lt;b&gt;&amp;nbsp; &quot;Check Safety Alerts&quot; Button for selected Fleet&lt;/b&gt;" style="ellipse;whiteSpace=wrap;html=1;aspect=fixed;fillColor=#f8cecc;strokeColor=#b85450;" vertex="1" parent="1">
          <mxGeometry x="304" y="295" width="130" height="130" as="geometry" />
        </mxCell>
        <mxCell id="w-AGzhBF_kdz7LjfCUOo-8" value="" style="endArrow=classic;html=1;rounded=0;exitX=1;exitY=0.5;exitDx=0;exitDy=0;entryX=0;entryY=0.5;entryDx=0;entryDy=0;" edge="1" parent="1" source="w-AGzhBF_kdz7LjfCUOo-7" target="w-AGzhBF_kdz7LjfCUOo-11">
          <mxGeometry width="50" height="50" relative="1" as="geometry">
            <mxPoint x="444" y="405" as="sourcePoint" />
            <mxPoint x="494" y="360" as="targetPoint" />
          </mxGeometry>
        </mxCell>
        <mxCell id="w-AGzhBF_kdz7LjfCUOo-9" value="" style="edgeStyle=orthogonalEdgeStyle;rounded=0;orthogonalLoop=1;jettySize=auto;html=1;entryX=0.577;entryY=-0.065;entryDx=0;entryDy=0;entryPerimeter=0;" edge="1" parent="1" source="w-AGzhBF_kdz7LjfCUOo-11" target="w-AGzhBF_kdz7LjfCUOo-13">
          <mxGeometry relative="1" as="geometry">
            <mxPoint x="539" y="487.5" as="targetPoint" />
          </mxGeometry>
        </mxCell>
        <mxCell id="w-AGzhBF_kdz7LjfCUOo-10" value="" style="edgeStyle=orthogonalEdgeStyle;rounded=0;orthogonalLoop=1;jettySize=auto;html=1;" edge="1" parent="1" source="w-AGzhBF_kdz7LjfCUOo-11">
          <mxGeometry relative="1" as="geometry">
            <mxPoint x="664" y="360" as="targetPoint" />
          </mxGeometry>
        </mxCell>
        <mxCell id="w-AGzhBF_kdz7LjfCUOo-11" value="&lt;div style=&quot;background-color: rgb(255, 255, 255); font-family: Consolas, &amp;quot;Courier New&amp;quot;, monospace; font-size: 14px; line-height: 19px; white-space: pre;&quot;&gt;&lt;div style=&quot;line-height: 19px;&quot;&gt;&lt;b&gt;vehicleTelematics.&lt;/b&gt;&lt;/div&gt;&lt;div style=&quot;line-height: 19px;&quot;&gt;&lt;b&gt;speed &amp;gt; &lt;span style=&quot;color: #098658;&quot;&gt;100&lt;/span&gt;&lt;/b&gt;&lt;/div&gt;&lt;/div&gt;" style="rhombus;whiteSpace=wrap;html=1;fillColor=#dae8fc;strokeColor=#6c8ebf;" vertex="1" parent="1">
          <mxGeometry x="455" y="305" width="180" height="102.5" as="geometry" />
        </mxCell>
        <mxCell id="w-AGzhBF_kdz7LjfCUOo-12" value="" style="edgeStyle=orthogonalEdgeStyle;rounded=0;orthogonalLoop=1;jettySize=auto;html=1;" edge="1" parent="1" source="w-AGzhBF_kdz7LjfCUOo-13">
          <mxGeometry relative="1" as="geometry">
            <mxPoint x="534" y="585" as="targetPoint" />
          </mxGeometry>
        </mxCell>
        <mxCell id="w-AGzhBF_kdz7LjfCUOo-13" value="&lt;b&gt;Generate Real time Safety alerts for the selected Fleet&lt;/b&gt;" style="rounded=1;whiteSpace=wrap;html=1;fillColor=#e1d5e7;strokeColor=#9673a6;" vertex="1" parent="1">
          <mxGeometry x="474" y="485" width="120" height="60" as="geometry" />
        </mxCell>
        <mxCell id="w-AGzhBF_kdz7LjfCUOo-14" value="&lt;b&gt;YES&lt;/b&gt;" style="text;html=1;strokeColor=#2D7600;fillColor=#60a917;align=center;verticalAlign=middle;whiteSpace=wrap;rounded=0;fontColor=#ffffff;" vertex="1" parent="1">
          <mxGeometry x="545" y="407.5" width="60" height="30" as="geometry" />
        </mxCell>
        <mxCell id="w-AGzhBF_kdz7LjfCUOo-15" value="&lt;b&gt;NO&lt;/b&gt;" style="text;html=1;strokeColor=#6F0000;fillColor=#a20025;align=center;verticalAlign=middle;whiteSpace=wrap;rounded=0;fontColor=#ffffff;" vertex="1" parent="1">
          <mxGeometry x="615" y="315" width="60" height="30" as="geometry" />
        </mxCell>
        <mxCell id="w-AGzhBF_kdz7LjfCUOo-16" value="&lt;b&gt;Notification Message to Customer =&amp;gt; &quot;No Safety Alerts needed&quot;&lt;/b&gt;" style="rounded=1;whiteSpace=wrap;html=1;fillColor=#e1d5e7;strokeColor=#9673a6;" vertex="1" parent="1">
          <mxGeometry x="665" y="335" width="110" height="100" as="geometry" />
        </mxCell>
        <mxCell id="w-AGzhBF_kdz7LjfCUOo-17" style="edgeStyle=orthogonalEdgeStyle;rounded=0;orthogonalLoop=1;jettySize=auto;html=1;entryX=0.5;entryY=0;entryDx=0;entryDy=0;exitX=0.5;exitY=1;exitDx=0;exitDy=0;" edge="1" parent="1" source="w-AGzhBF_kdz7LjfCUOo-16" target="w-AGzhBF_kdz7LjfCUOo-18">
          <mxGeometry relative="1" as="geometry">
            <mxPoint x="720" y="447.5" as="sourcePoint" />
          </mxGeometry>
        </mxCell>
        <mxCell id="w-AGzhBF_kdz7LjfCUOo-18" value="" style="ellipse;html=1;shape=endState;fillColor=#000000;strokeColor=#ff0000;" vertex="1" parent="1">
          <mxGeometry x="705" y="620" width="30" height="30" as="geometry" />
        </mxCell>
        <mxCell id="w-AGzhBF_kdz7LjfCUOo-19" style="edgeStyle=orthogonalEdgeStyle;rounded=0;orthogonalLoop=1;jettySize=auto;html=1;exitX=1;exitY=0.5;exitDx=0;exitDy=0;entryX=0;entryY=0.5;entryDx=0;entryDy=0;" edge="1" parent="1" target="w-AGzhBF_kdz7LjfCUOo-18">
          <mxGeometry relative="1" as="geometry">
            <mxPoint x="584.5" y="635" as="sourcePoint" />
          </mxGeometry>
        </mxCell>
        <mxCell id="w-AGzhBF_kdz7LjfCUOo-20" value="&lt;b&gt;&lt;u&gt;MICROSERVICE1&amp;nbsp;&amp;nbsp;&lt;/u&gt;&lt;/b&gt;&lt;div&gt;&lt;b&gt;&lt;u&gt;Telematics Analytics&lt;/u&gt;&lt;/b&gt;&lt;/div&gt;" style="text;html=1;strokeColor=#d6b656;fillColor=#fff2cc;align=center;verticalAlign=middle;whiteSpace=wrap;rounded=0;" vertex="1" parent="1">
          <mxGeometry x="423.5" y="165" width="141.5" height="40" as="geometry" />
        </mxCell>
        <mxCell id="w-AGzhBF_kdz7LjfCUOo-21" value="&lt;b&gt;&lt;u&gt;MICROSERVICE 2&amp;nbsp; Safety Alerts&lt;/u&gt;&lt;/b&gt;" style="text;html=1;strokeColor=#d6b656;fillColor=#fff2cc;align=center;verticalAlign=middle;whiteSpace=wrap;rounded=0;" vertex="1" parent="1">
          <mxGeometry x="194" y="437.5" width="121.5" height="40" as="geometry" />
        </mxCell>
        <mxCell id="w-AGzhBF_kdz7LjfCUOo-23" value="&lt;b&gt;&lt;u&gt;API1&amp;nbsp;&amp;nbsp;&lt;/u&gt;&lt;/b&gt;&lt;div&gt;&lt;b&gt;&lt;u&gt;GetAllTelematicsData&lt;/u&gt;&lt;/b&gt;&lt;/div&gt;" style="text;html=1;strokeColor=#d6b656;fillColor=#fff2cc;align=center;verticalAlign=middle;whiteSpace=wrap;rounded=0;" vertex="1" parent="1">
          <mxGeometry x="423.5" y="215" width="141.5" height="40" as="geometry" />
        </mxCell>
        <mxCell id="w-AGzhBF_kdz7LjfCUOo-24" value="&lt;b&gt;&lt;u&gt;API 2&lt;/u&gt;&lt;/b&gt;&lt;div&gt;&lt;b&gt;&lt;u&gt;Safety Alerts&lt;/u&gt;&lt;/b&gt;&lt;/div&gt;" style="text;html=1;strokeColor=#d6b656;fillColor=#fff2cc;align=center;verticalAlign=middle;whiteSpace=wrap;rounded=0;" vertex="1" parent="1">
          <mxGeometry x="320" y="437.5" width="121.5" height="40" as="geometry" />
        </mxCell>
        <mxCell id="w-AGzhBF_kdz7LjfCUOo-25" value="&lt;span style=&quot;font-weight: 700;&quot;&gt;Notification Message to Customer (&lt;/span&gt;&lt;span style=&quot;color: rgb(163, 21, 21); background-color: rgb(255, 255, 255); font-family: Consolas, &amp;quot;Courier New&amp;quot;, monospace; font-size: 14px; white-space: pre;&quot;&gt;S&lt;b&gt;afety alert: &lt;/b&gt;&lt;/span&gt;&lt;div&gt;&lt;span style=&quot;color: rgb(163, 21, 21); background-color: rgb(255, 255, 255); font-family: Consolas, &amp;quot;Courier New&amp;quot;, monospace; font-size: 14px; white-space: pre;&quot;&gt;&lt;b&gt;High speed &lt;/b&gt;&lt;/span&gt;&lt;div&gt;&lt;span style=&quot;color: rgb(163, 21, 21); background-color: rgb(255, 255, 255); font-family: Consolas, &amp;quot;Courier New&amp;quot;, monospace; font-size: 14px; white-space: pre;&quot;&gt;&lt;b&gt;detected for &lt;/b&gt;&lt;/span&gt;&lt;/div&gt;&lt;div&gt;&lt;span style=&quot;color: rgb(163, 21, 21); background-color: rgb(255, 255, 255); font-family: Consolas, &amp;quot;Courier New&amp;quot;, monospace; font-size: 14px; white-space: pre;&quot;&gt;&lt;b&gt;vehicle &lt;/b&gt;&lt;/span&gt;&lt;/div&gt;&lt;div&gt;&lt;span style=&quot;color: rgb(163, 21, 21); background-color: rgb(255, 255, 255); font-family: Consolas, &amp;quot;Courier New&amp;quot;, monospace; font-size: 14px; white-space: pre;&quot;&gt;&lt;b&gt;with ID&lt;/b&gt;&lt;/span&gt;&lt;span style=&quot;font-weight: 700; background-color: initial;&quot;&gt;)&lt;/span&gt;&lt;/div&gt;&lt;/div&gt;" style="rounded=1;whiteSpace=wrap;html=1;fillColor=#e1d5e7;strokeColor=#9673a6;" vertex="1" parent="1">
          <mxGeometry x="455" y="585" width="155" height="125" as="geometry" />
        </mxCell>
        <mxCell id="w-AGzhBF_kdz7LjfCUOo-26" value="&lt;b&gt;Reuse API1 via Event Broker - Apache Kafka&lt;/b&gt;" style="text;html=1;strokeColor=#C73500;fillColor=#fa6800;align=center;verticalAlign=middle;whiteSpace=wrap;rounded=0;fontColor=#000000;" vertex="1" parent="1">
          <mxGeometry x="292.5" y="110" width="141.5" height="40" as="geometry" />
        </mxCell>
      </root>
    </mxGraphModel>
  </diagram>
</mxfile>
